<?xml version="1.0" encoding="UTF-8" standalone="no"?><svg xmlns="http://www.w3.org/2000/svg" xmlns:xlink="http://www.w3.org/1999/xlink" contentScriptType="application/ecmascript" contentStyleType="text/css" height="442px" preserveAspectRatio="none" style="width:513px;height:442px;" version="1.1" viewBox="0 0 513 442" width="513px" zoomAndPan="magnify"><defs><filter height="300%" id="f10kpkfd09xoxq" width="300%" x="-1" y="-1"><feGaussianBlur result="blurOut" stdDeviation="2.0"/><feColorMatrix in="blurOut" result="blurOut2" type="matrix" values="0 0 0 0 0 0 0 0 0 0 0 0 0 0 0 0 0 0 .4 0"/><feOffset dx="4.0" dy="4.0" in="blurOut2" result="blurOut3"/><feBlend in="SourceGraphic" in2="blurOut3" mode="normal"/></filter></defs><g><!--class CellImpl--><rect fill="#FEFECE" filter="url(#f10kpkfd09xoxq)" height="48" id="CellImpl" style="stroke: #A80036; stroke-width: 1.5;" width="79" x="269" y="8"/><ellipse cx="284" cy="24" fill="#ADD1B2" rx="11" ry="11" style="stroke: #A80036; stroke-width: 1.0;"/><path d="M286.3438,19.6719 L286.5156,19.75 C286.7344,19.4375 286.9375,19.3438 287.2344,19.3438 C287.5313,19.3438 287.8125,19.4844 287.9688,19.75 C288.0625,19.9063 288.0781,20.0313 288.0781,20.4688 L288.0781,21.8906 C288.0781,22.3125 288.0469,22.5 287.9375,22.6563 C287.7656,22.875 287.5,23.0156 287.2344,23.0156 C287.0156,23.0156 286.7813,22.9063 286.6406,22.7656 C286.5,22.6406 286.4688,22.5156 286.4063,22.1094 C286.3125,21.7031 286.1406,21.4844 285.6563,21.2031 C285.1875,20.9531 284.5781,20.7969 284,20.7969 C282.2656,20.7969 281.0156,22.1094 281.0156,23.8906 L281.0156,24.9844 C281.0156,26.6875 282.3125,27.7813 284.3594,27.7813 C285.125,27.7813 285.8125,27.6563 286.2344,27.3906 C286.4219,27.2969 286.4219,27.2969 286.875,26.8125 C287.0625,26.625 287.2656,26.5469 287.4844,26.5469 C287.9531,26.5469 288.3438,26.9375 288.3438,27.3906 C288.3438,27.7813 288.0156,28.2344 287.4375,28.6406 C286.6875,29.1875 285.5313,29.4844 284.3125,29.4844 C281.4219,29.4844 279.3125,27.5938 279.3125,25.0156 L279.3125,23.8906 C279.3125,21.1719 281.3125,19.0938 283.9375,19.0938 C284.8125,19.0938 285.4063,19.2344 286.3438,19.6719 Z "/><text fill="#000000" font-family="sans-serif" font-size="12" lengthAdjust="spacingAndGlyphs" textLength="47" x="298" y="28.1543">CellImpl</text><line style="stroke: #A80036; stroke-width: 1.5;" x1="270" x2="347" y1="40" y2="40"/><line style="stroke: #A80036; stroke-width: 1.5;" x1="270" x2="347" y1="48" y2="48"/><!--class FormulaCompiler--><rect fill="#FEFECE" filter="url(#f10kpkfd09xoxq)" height="48" id="FormulaCompiler" style="stroke: #A80036; stroke-width: 1.5;" width="136" x="240.5" y="116"/><ellipse cx="255.5" cy="132" fill="#ADD1B2" rx="11" ry="11" style="stroke: #A80036; stroke-width: 1.0;"/><path d="M257.8438,127.6719 L258.0156,127.75 C258.2344,127.4375 258.4375,127.3438 258.7344,127.3438 C259.0313,127.3438 259.3125,127.4844 259.4688,127.75 C259.5625,127.9063 259.5781,128.0313 259.5781,128.4688 L259.5781,129.8906 C259.5781,130.3125 259.5469,130.5 259.4375,130.6563 C259.2656,130.875 259,131.0156 258.7344,131.0156 C258.5156,131.0156 258.2813,130.9063 258.1406,130.7656 C258,130.6406 257.9688,130.5156 257.9063,130.1094 C257.8125,129.7031 257.6406,129.4844 257.1563,129.2031 C256.6875,128.9531 256.0781,128.7969 255.5,128.7969 C253.7656,128.7969 252.5156,130.1094 252.5156,131.8906 L252.5156,132.9844 C252.5156,134.6875 253.8125,135.7813 255.8594,135.7813 C256.625,135.7813 257.3125,135.6563 257.7344,135.3906 C257.9219,135.2969 257.9219,135.2969 258.375,134.8125 C258.5625,134.625 258.7656,134.5469 258.9844,134.5469 C259.4531,134.5469 259.8438,134.9375 259.8438,135.3906 C259.8438,135.7813 259.5156,136.2344 258.9375,136.6406 C258.1875,137.1875 257.0313,137.4844 255.8125,137.4844 C252.9219,137.4844 250.8125,135.5938 250.8125,133.0156 L250.8125,131.8906 C250.8125,129.1719 252.8125,127.0938 255.4375,127.0938 C256.3125,127.0938 256.9063,127.2344 257.8438,127.6719 Z "/><text fill="#000000" font-family="sans-serif" font-size="12" lengthAdjust="spacingAndGlyphs" textLength="104" x="269.5" y="136.1543">FormulaCompiler</text><line style="stroke: #A80036; stroke-width: 1.5;" x1="241.5" x2="375.5" y1="148" y2="148"/><line style="stroke: #A80036; stroke-width: 1.5;" x1="241.5" x2="375.5" y1="156" y2="156"/><!--class ExpressionCompiler--><rect fill="#FEFECE" filter="url(#f10kpkfd09xoxq)" height="48" id="ExpressionCompiler" style="stroke: #A80036; stroke-width: 1.5;" width="154" x="231.5" y="224"/><ellipse cx="246.5" cy="240" fill="#ADD1B2" rx="11" ry="11" style="stroke: #A80036; stroke-width: 1.0;"/><path d="M248.8438,235.6719 L249.0156,235.75 C249.2344,235.4375 249.4375,235.3438 249.7344,235.3438 C250.0313,235.3438 250.3125,235.4844 250.4688,235.75 C250.5625,235.9063 250.5781,236.0313 250.5781,236.4688 L250.5781,237.8906 C250.5781,238.3125 250.5469,238.5 250.4375,238.6563 C250.2656,238.875 250,239.0156 249.7344,239.0156 C249.5156,239.0156 249.2813,238.9063 249.1406,238.7656 C249,238.6406 248.9688,238.5156 248.9063,238.1094 C248.8125,237.7031 248.6406,237.4844 248.1563,237.2031 C247.6875,236.9531 247.0781,236.7969 246.5,236.7969 C244.7656,236.7969 243.5156,238.1094 243.5156,239.8906 L243.5156,240.9844 C243.5156,242.6875 244.8125,243.7813 246.8594,243.7813 C247.625,243.7813 248.3125,243.6563 248.7344,243.3906 C248.9219,243.2969 248.9219,243.2969 249.375,242.8125 C249.5625,242.625 249.7656,242.5469 249.9844,242.5469 C250.4531,242.5469 250.8438,242.9375 250.8438,243.3906 C250.8438,243.7813 250.5156,244.2344 249.9375,244.6406 C249.1875,245.1875 248.0313,245.4844 246.8125,245.4844 C243.9219,245.4844 241.8125,243.5938 241.8125,241.0156 L241.8125,239.8906 C241.8125,237.1719 243.8125,235.0938 246.4375,235.0938 C247.3125,235.0938 247.9063,235.2344 248.8438,235.6719 Z "/><text fill="#000000" font-family="sans-serif" font-size="12" lengthAdjust="spacingAndGlyphs" textLength="122" x="260.5" y="244.1543">ExpressionCompiler</text><line style="stroke: #A80036; stroke-width: 1.5;" x1="232.5" x2="384.5" y1="256" y2="256"/><line style="stroke: #A80036; stroke-width: 1.5;" x1="232.5" x2="384.5" y1="264" y2="264"/><!--class VariableWrapper--><rect fill="#FEFECE" filter="url(#f10kpkfd09xoxq)" height="48" id="VariableWrapper" style="stroke: #A80036; stroke-width: 1.5;" width="136" x="59.5" y="224"/><ellipse cx="74.5" cy="240" fill="#ADD1B2" rx="11" ry="11" style="stroke: #A80036; stroke-width: 1.0;"/><path d="M76.8438,235.6719 L77.0156,235.75 C77.2344,235.4375 77.4375,235.3438 77.7344,235.3438 C78.0313,235.3438 78.3125,235.4844 78.4688,235.75 C78.5625,235.9063 78.5781,236.0313 78.5781,236.4688 L78.5781,237.8906 C78.5781,238.3125 78.5469,238.5 78.4375,238.6563 C78.2656,238.875 78,239.0156 77.7344,239.0156 C77.5156,239.0156 77.2813,238.9063 77.1406,238.7656 C77,238.6406 76.9688,238.5156 76.9063,238.1094 C76.8125,237.7031 76.6406,237.4844 76.1563,237.2031 C75.6875,236.9531 75.0781,236.7969 74.5,236.7969 C72.7656,236.7969 71.5156,238.1094 71.5156,239.8906 L71.5156,240.9844 C71.5156,242.6875 72.8125,243.7813 74.8594,243.7813 C75.625,243.7813 76.3125,243.6563 76.7344,243.3906 C76.9219,243.2969 76.9219,243.2969 77.375,242.8125 C77.5625,242.625 77.7656,242.5469 77.9844,242.5469 C78.4531,242.5469 78.8438,242.9375 78.8438,243.3906 C78.8438,243.7813 78.5156,244.2344 77.9375,244.6406 C77.1875,245.1875 76.0313,245.4844 74.8125,245.4844 C71.9219,245.4844 69.8125,243.5938 69.8125,241.0156 L69.8125,239.8906 C69.8125,237.1719 71.8125,235.0938 74.4375,235.0938 C75.3125,235.0938 75.9063,235.2344 76.8438,235.6719 Z "/><text fill="#000000" font-family="sans-serif" font-size="12" lengthAdjust="spacingAndGlyphs" textLength="104" x="88.5" y="244.1543">VariableWrapper</text><line style="stroke: #A80036; stroke-width: 1.5;" x1="60.5" x2="194.5" y1="256" y2="256"/><line style="stroke: #A80036; stroke-width: 1.5;" x1="60.5" x2="194.5" y1="264" y2="264"/><!--class Variable--><rect fill="#FEFECE" filter="url(#f10kpkfd09xoxq)" height="99.2188" id="Variable" style="stroke: #A80036; stroke-width: 1.5;" width="237" x="6" y="332"/><ellipse cx="94.75" cy="348" fill="#ADD1B2" rx="11" ry="11" style="stroke: #A80036; stroke-width: 1.0;"/><path d="M97.0938,343.6719 L97.2656,343.75 C97.4844,343.4375 97.6875,343.3438 97.9844,343.3438 C98.2813,343.3438 98.5625,343.4844 98.7188,343.75 C98.8125,343.9063 98.8281,344.0313 98.8281,344.4688 L98.8281,345.8906 C98.8281,346.3125 98.7969,346.5 98.6875,346.6563 C98.5156,346.875 98.25,347.0156 97.9844,347.0156 C97.7656,347.0156 97.5313,346.9063 97.3906,346.7656 C97.25,346.6406 97.2188,346.5156 97.1563,346.1094 C97.0625,345.7031 96.8906,345.4844 96.4063,345.2031 C95.9375,344.9531 95.3281,344.7969 94.75,344.7969 C93.0156,344.7969 91.7656,346.1094 91.7656,347.8906 L91.7656,348.9844 C91.7656,350.6875 93.0625,351.7813 95.1094,351.7813 C95.875,351.7813 96.5625,351.6563 96.9844,351.3906 C97.1719,351.2969 97.1719,351.2969 97.625,350.8125 C97.8125,350.625 98.0156,350.5469 98.2344,350.5469 C98.7031,350.5469 99.0938,350.9375 99.0938,351.3906 C99.0938,351.7813 98.7656,352.2344 98.1875,352.6406 C97.4375,353.1875 96.2813,353.4844 95.0625,353.4844 C92.1719,353.4844 90.0625,351.5938 90.0625,349.0156 L90.0625,347.8906 C90.0625,345.1719 92.0625,343.0938 94.6875,343.0938 C95.5625,343.0938 96.1563,343.2344 97.0938,343.6719 Z "/><text fill="#000000" font-family="sans-serif" font-size="12" lengthAdjust="spacingAndGlyphs" textLength="51" x="115.25" y="352.1543">Variable</text><line style="stroke: #A80036; stroke-width: 1.5;" x1="7" x2="242" y1="364" y2="364"/><rect fill="none" height="6" style="stroke: #C82930; stroke-width: 1.0;" width="6" x="14" y="372.9023"/><text fill="#000000" font-family="sans-serif" font-size="11" lengthAdjust="spacingAndGlyphs" textLength="74" x="26" y="378.2104">String name;</text><rect fill="none" height="6" style="stroke: #C82930; stroke-width: 1.0;" width="6" x="14" y="385.707"/><text fill="#000000" font-family="sans-serif" font-size="11" lengthAdjust="spacingAndGlyphs" textLength="69" x="26" y="391.0151">Value value;</text><line style="stroke: #A80036; stroke-width: 1.5;" x1="7" x2="242" y1="397.6094" y2="397.6094"/><ellipse cx="17" cy="409.5117" fill="#84BE84" rx="3" ry="3" style="stroke: #038048; stroke-width: 1.0;"/><text fill="#000000" font-family="sans-serif" font-size="11" lengthAdjust="spacingAndGlyphs" textLength="152" x="26" y="411.8198">create(variableName, 0.0);</text><ellipse cx="17" cy="422.3164" fill="#84BE84" rx="3" ry="3" style="stroke: #038048; stroke-width: 1.0;"/><text fill="#000000" font-family="sans-serif" font-size="11" lengthAdjust="spacingAndGlyphs" textLength="211" x="26" y="424.6245">setVariableValue (rightOp.toDouble())</text><!--class Formula--><rect fill="#FEFECE" filter="url(#f10kpkfd09xoxq)" height="48" id="Formula" style="stroke: #A80036; stroke-width: 1.5;" width="82" x="420.5" y="224"/><ellipse cx="435.5" cy="240" fill="#ADD1B2" rx="11" ry="11" style="stroke: #A80036; stroke-width: 1.0;"/><path d="M437.8438,235.6719 L438.0156,235.75 C438.2344,235.4375 438.4375,235.3438 438.7344,235.3438 C439.0313,235.3438 439.3125,235.4844 439.4688,235.75 C439.5625,235.9063 439.5781,236.0313 439.5781,236.4688 L439.5781,237.8906 C439.5781,238.3125 439.5469,238.5 439.4375,238.6563 C439.2656,238.875 439,239.0156 438.7344,239.0156 C438.5156,239.0156 438.2813,238.9063 438.1406,238.7656 C438,238.6406 437.9688,238.5156 437.9063,238.1094 C437.8125,237.7031 437.6406,237.4844 437.1563,237.2031 C436.6875,236.9531 436.0781,236.7969 435.5,236.7969 C433.7656,236.7969 432.5156,238.1094 432.5156,239.8906 L432.5156,240.9844 C432.5156,242.6875 433.8125,243.7813 435.8594,243.7813 C436.625,243.7813 437.3125,243.6563 437.7344,243.3906 C437.9219,243.2969 437.9219,243.2969 438.375,242.8125 C438.5625,242.625 438.7656,242.5469 438.9844,242.5469 C439.4531,242.5469 439.8438,242.9375 439.8438,243.3906 C439.8438,243.7813 439.5156,244.2344 438.9375,244.6406 C438.1875,245.1875 437.0313,245.4844 435.8125,245.4844 C432.9219,245.4844 430.8125,243.5938 430.8125,241.0156 L430.8125,239.8906 C430.8125,237.1719 432.8125,235.0938 435.4375,235.0938 C436.3125,235.0938 436.9063,235.2344 437.8438,235.6719 Z "/><text fill="#000000" font-family="sans-serif" font-size="12" lengthAdjust="spacingAndGlyphs" textLength="50" x="449.5" y="244.1543">Formula</text><line style="stroke: #A80036; stroke-width: 1.5;" x1="421.5" x2="501.5" y1="256" y2="256"/><line style="stroke: #A80036; stroke-width: 1.5;" x1="421.5" x2="501.5" y1="264" y2="264"/><!--class Block--><rect fill="#FEFECE" filter="url(#f10kpkfd09xoxq)" height="48" id="Block" style="stroke: #A80036; stroke-width: 1.5;" width="65" x="278" y="357.5"/><ellipse cx="293" cy="373.5" fill="#ADD1B2" rx="11" ry="11" style="stroke: #A80036; stroke-width: 1.0;"/><path d="M295.3438,369.1719 L295.5156,369.25 C295.7344,368.9375 295.9375,368.8438 296.2344,368.8438 C296.5313,368.8438 296.8125,368.9844 296.9688,369.25 C297.0625,369.4063 297.0781,369.5313 297.0781,369.9688 L297.0781,371.3906 C297.0781,371.8125 297.0469,372 296.9375,372.1563 C296.7656,372.375 296.5,372.5156 296.2344,372.5156 C296.0156,372.5156 295.7813,372.4063 295.6406,372.2656 C295.5,372.1406 295.4688,372.0156 295.4063,371.6094 C295.3125,371.2031 295.1406,370.9844 294.6563,370.7031 C294.1875,370.4531 293.5781,370.2969 293,370.2969 C291.2656,370.2969 290.0156,371.6094 290.0156,373.3906 L290.0156,374.4844 C290.0156,376.1875 291.3125,377.2813 293.3594,377.2813 C294.125,377.2813 294.8125,377.1563 295.2344,376.8906 C295.4219,376.7969 295.4219,376.7969 295.875,376.3125 C296.0625,376.125 296.2656,376.0469 296.4844,376.0469 C296.9531,376.0469 297.3438,376.4375 297.3438,376.8906 C297.3438,377.2813 297.0156,377.7344 296.4375,378.1406 C295.6875,378.6875 294.5313,378.9844 293.3125,378.9844 C290.4219,378.9844 288.3125,377.0938 288.3125,374.5156 L288.3125,373.3906 C288.3125,370.6719 290.3125,368.5938 292.9375,368.5938 C293.8125,368.5938 294.4063,368.7344 295.3438,369.1719 Z "/><text fill="#000000" font-family="sans-serif" font-size="12" lengthAdjust="spacingAndGlyphs" textLength="33" x="307" y="377.6543">Block</text><line style="stroke: #A80036; stroke-width: 1.5;" x1="279" x2="342" y1="389.5" y2="389.5"/><line style="stroke: #A80036; stroke-width: 1.5;" x1="279" x2="342" y1="397.5" y2="397.5"/><!--class Attribution--><rect fill="#FEFECE" filter="url(#f10kpkfd09xoxq)" height="48" id="Attribution" style="stroke: #A80036; stroke-width: 1.5;" width="98" x="378.5" y="357.5"/><ellipse cx="393.5" cy="373.5" fill="#ADD1B2" rx="11" ry="11" style="stroke: #A80036; stroke-width: 1.0;"/><path d="M395.8438,369.1719 L396.0156,369.25 C396.2344,368.9375 396.4375,368.8438 396.7344,368.8438 C397.0313,368.8438 397.3125,368.9844 397.4688,369.25 C397.5625,369.4063 397.5781,369.5313 397.5781,369.9688 L397.5781,371.3906 C397.5781,371.8125 397.5469,372 397.4375,372.1563 C397.2656,372.375 397,372.5156 396.7344,372.5156 C396.5156,372.5156 396.2813,372.4063 396.1406,372.2656 C396,372.1406 395.9688,372.0156 395.9063,371.6094 C395.8125,371.2031 395.6406,370.9844 395.1563,370.7031 C394.6875,370.4531 394.0781,370.2969 393.5,370.2969 C391.7656,370.2969 390.5156,371.6094 390.5156,373.3906 L390.5156,374.4844 C390.5156,376.1875 391.8125,377.2813 393.8594,377.2813 C394.625,377.2813 395.3125,377.1563 395.7344,376.8906 C395.9219,376.7969 395.9219,376.7969 396.375,376.3125 C396.5625,376.125 396.7656,376.0469 396.9844,376.0469 C397.4531,376.0469 397.8438,376.4375 397.8438,376.8906 C397.8438,377.2813 397.5156,377.7344 396.9375,378.1406 C396.1875,378.6875 395.0313,378.9844 393.8125,378.9844 C390.9219,378.9844 388.8125,377.0938 388.8125,374.5156 L388.8125,373.3906 C388.8125,370.6719 390.8125,368.5938 393.4375,368.5938 C394.3125,368.5938 394.9063,368.7344 395.8438,369.1719 Z "/><text fill="#000000" font-family="sans-serif" font-size="12" lengthAdjust="spacingAndGlyphs" textLength="66" x="407.5" y="377.6543">Attribution</text><line style="stroke: #A80036; stroke-width: 1.5;" x1="379.5" x2="475.5" y1="389.5" y2="389.5"/><line style="stroke: #A80036; stroke-width: 1.5;" x1="379.5" x2="475.5" y1="397.5" y2="397.5"/><!--link ExpressionCompiler to Variable--><path d="M276.028,272.207 C254.092,287.884 224.242,309.217 196.835,328.804 " fill="none" id="ExpressionCompiler-Variable" style="stroke: #A80036; stroke-width: 1.0;"/><polygon fill="#A80036" points="192.459,331.9312,202.1072,329.9534,196.5272,329.0243,197.4562,323.4443,192.459,331.9312" style="stroke: #A80036; stroke-width: 1.0;"/><!--link ExpressionCompiler to Attribution--><path d="M329.501,272.207 C350.022,294.883 381.249,329.391 402.916,353.3342 " fill="none" id="ExpressionCompiler-Attribution" style="stroke: #A80036; stroke-width: 1.0;"/><polygon fill="#A80036" points="406.309,357.0828,403.2356,347.7257,402.9539,353.3756,397.3041,353.0939,406.309,357.0828" style="stroke: #A80036; stroke-width: 1.0;"/><!--link ExpressionCompiler to Block--><path d="M308.853,272.207 C309.191,294.416 309.701,327.976 310.064,351.843 " fill="none" id="ExpressionCompiler-Block" style="stroke: #A80036; stroke-width: 1.0;"/><polygon fill="#A80036" points="310.144,357.0828,314.0065,348.0229,310.0679,352.0834,306.0074,348.1448,310.144,357.0828" style="stroke: #A80036; stroke-width: 1.0;"/><!--link VariableWrapper to Variable--><path d="M126.971,272.207 C126.626,287.304 126.162,307.644 125.729,326.621 " fill="none" id="VariableWrapper-Variable" style="stroke: #A80036; stroke-width: 1.0;"/><polygon fill="#A80036" points="125.608,331.9312,129.8101,323.0238,125.7209,326.9325,121.8122,322.8432,125.608,331.9312" style="stroke: #A80036; stroke-width: 1.0;"/><!--link FormulaCompiler to VariableWrapper--><path d="M269.226,164 C240.388,180.889 201.204,203.837 171.345,221.323 " fill="none" id="FormulaCompiler-VariableWrapper" style="stroke: #A80036; stroke-width: 1.0;"/><polygon fill="#A80036" points="167.01,223.862,176.7975,222.7646,171.3243,221.3348,172.7541,215.8616,167.01,223.862" style="stroke: #A80036; stroke-width: 1.0;"/><!--link FormulaCompiler to ExpressionCompiler--><path d="M308.5,164 C308.5,180.003 308.5,201.446 308.5,218.528 " fill="none" id="FormulaCompiler-ExpressionCompiler" style="stroke: #A80036; stroke-width: 1.0;"/><polygon fill="#A80036" points="308.5,223.678,312.5,214.678,308.5,218.678,304.5,214.678,308.5,223.678" style="stroke: #A80036; stroke-width: 1.0;"/><!--link FormulaCompiler to Formula--><path d="M341.699,164 C365.875,180.75 398.656,203.461 423.815,220.892 " fill="none" id="FormulaCompiler-Formula" style="stroke: #A80036; stroke-width: 1.0;"/><polygon fill="#A80036" points="428.102,223.862,422.9815,215.4489,423.9919,221.0148,418.426,222.0251,428.102,223.862" style="stroke: #A80036; stroke-width: 1.0;"/><!--link CellImpl to FormulaCompiler--><path d="M308.5,56 C308.5,72.003 308.5,93.446 308.5,110.528 " fill="none" id="CellImpl-FormulaCompiler" style="stroke: #A80036; stroke-width: 1.0;"/><polygon fill="#A80036" points="308.5,115.678,312.5,106.678,308.5,110.678,304.5,106.678,308.5,115.678" style="stroke: #A80036; stroke-width: 1.0;"/><!--
@startuml
class CellImpl {
}
class FormulaCompiler{
}

class ExpressionCompiler{
}

class VariableWrapper{
}

class Variable{
    -String name;
    -Value value;
    +create(variableName, 0.0);
    +setVariableValue (rightOp.toDouble())
}

class Formula{
}

class Block{
}

class Attribution{
}


ExpressionCompiler - -> Variable
ExpressionCompiler - ->Attribution
ExpressionCompiler - -> Block
VariableWrapper - -> Variable
FormulaCompiler - -> VariableWrapper
FormulaCompiler - -> ExpressionCompiler
FormulaCompiler - -> Formula
CellImpl - -> FormulaCompiler
@enduml

PlantUML version 1.2018.07beta8(Unknown compile time)
(GPL source distribution)
Java Runtime: Java(TM) SE Runtime Environment
JVM: Java HotSpot(TM) 64-Bit Server VM
Java Version: 1.7.0_25-b15
Operating System: Linux
Default Encoding: UTF-8
Language: en
Country: US
--></g></svg>