<?xml version="1.0" encoding="UTF-8" standalone="no"?><svg xmlns="http://www.w3.org/2000/svg" xmlns:xlink="http://www.w3.org/1999/xlink" contentScriptType="application/ecmascript" contentStyleType="text/css" height="251px" preserveAspectRatio="none" style="width:688px;height:251px;" version="1.1" viewBox="0 0 688 251" width="688px" zoomAndPan="magnify"><defs><filter height="300%" id="fisbjmwg85cfs" width="300%" x="-1" y="-1"><feGaussianBlur result="blurOut" stdDeviation="2.0"/><feColorMatrix in="blurOut" result="blurOut2" type="matrix" values="0 0 0 0 0 0 0 0 0 0 0 0 0 0 0 0 0 0 .4 0"/><feOffset dx="4.0" dy="4.0" in="blurOut2" result="blurOut3"/><feBlend in="SourceGraphic" in2="blurOut3" mode="normal"/></filter></defs><g><rect fill="#FFFFFF" filter="url(#fisbjmwg85cfs)" height="38.1328" style="stroke: #A80036; stroke-width: 1.0;" width="10" x="642" y="117.4297"/><line style="stroke: #A80036; stroke-width: 1.0; stroke-dasharray: 5.0,5.0;" x1="27" x2="27" y1="86.2969" y2="164.5625"/><line style="stroke: #A80036; stroke-width: 1.0; stroke-dasharray: 5.0,5.0;" x1="646.5" x2="646.5" y1="86.2969" y2="164.5625"/><text fill="#000000" font-family="sans-serif" font-size="14" lengthAdjust="spacingAndGlyphs" textLength="32" x="8" y="82.9951">User</text><ellipse cx="27" cy="13" fill="#FEFECE" filter="url(#fisbjmwg85cfs)" rx="8" ry="8" style="stroke: #A80036; stroke-width: 2.0;"/><path d="M27,21 L27,48 M14,29 L40,29 M27,48 L14,63 M27,48 L40,63 " fill="none" filter="url(#fisbjmwg85cfs)" style="stroke: #A80036; stroke-width: 2.0;"/><text fill="#000000" font-family="sans-serif" font-size="14" lengthAdjust="spacingAndGlyphs" textLength="32" x="8" y="176.5576">User</text><ellipse cx="27" cy="189.8594" fill="#FEFECE" filter="url(#fisbjmwg85cfs)" rx="8" ry="8" style="stroke: #A80036; stroke-width: 2.0;"/><path d="M27,197.8594 L27,224.8594 M14,205.8594 L40,205.8594 M27,224.8594 L14,239.8594 M27,224.8594 L40,239.8594 " fill="none" filter="url(#fisbjmwg85cfs)" style="stroke: #A80036; stroke-width: 2.0;"/><rect fill="#FEFECE" filter="url(#fisbjmwg85cfs)" height="30.2969" style="stroke: #A80036; stroke-width: 1.5;" width="65" x="612.5" y="51"/><text fill="#000000" font-family="sans-serif" font-size="14" lengthAdjust="spacingAndGlyphs" textLength="51" x="619.5" y="70.9951">System</text><rect fill="#FEFECE" filter="url(#fisbjmwg85cfs)" height="30.2969" style="stroke: #A80036; stroke-width: 1.5;" width="65" x="612.5" y="163.5625"/><text fill="#000000" font-family="sans-serif" font-size="14" lengthAdjust="spacingAndGlyphs" textLength="51" x="619.5" y="183.5576">System</text><rect fill="#FFFFFF" filter="url(#fisbjmwg85cfs)" height="38.1328" style="stroke: #A80036; stroke-width: 1.0;" width="10" x="642" y="117.4297"/><polygon fill="#A80036" points="630,113.4297,640,117.4297,630,121.4297,634,117.4297" style="stroke: #A80036; stroke-width: 1.0;"/><line style="stroke: #A80036; stroke-width: 1.0;" x1="27" x2="636" y1="117.4297" y2="117.4297"/><text fill="#000000" font-family="sans-serif" font-size="13" lengthAdjust="spacingAndGlyphs" textLength="309" x="34" y="112.3638">User inputs a Block of Instructions with Variables</text><polygon fill="#A80036" points="38,142.5625,28,146.5625,38,150.5625,34,146.5625" style="stroke: #A80036; stroke-width: 1.0;"/><line style="stroke: #A80036; stroke-width: 1.0;" x1="32" x2="641" y1="146.5625" y2="146.5625"/><text fill="#000000" font-family="sans-serif" font-size="13" lengthAdjust="spacingAndGlyphs" textLength="591" x="44" y="141.4966">The system parses the input, assigns a value to the Variable(s) and shows the Block's result.</text><!--
@startuml
actor User 
participant "System" as Sys
User -> Sys : User inputs a Block of Instructions with Variables
activate Sys
Sys -> User : The system parses the input, assigns a value to the Variable(s) and shows the Block's result.
@enduml

PlantUML version 1.2018.07beta8(Unknown compile time)
(GPL source distribution)
Java Runtime: Java(TM) SE Runtime Environment
JVM: Java HotSpot(TM) 64-Bit Server VM
Java Version: 1.7.0_25-b15
Operating System: Linux
Default Encoding: UTF-8
Language: en
Country: US
--></g></svg>